# xmcd CD database file
#
# Track frame offsets:
#	150
#	12665
#	25465
#	40170
#	52890
#	69412
#	83372
#	98332
#	115795
#	128767
#	145460
#	163410
#	176502
#	189772
#	205547
#	222200
#
# Disc length: 3159 seconds
#
# Revision: 0
# Processed by: cddbd v1.4PL0 Copyright (c) Steve Scherf et al.
# Submitted via: CDex 1.40Release
#
DISCID=ce0c5510
DTITLE=Anne Murray and Kenny Rogers - Love Songs
DYEAR=1996
DGENRE=Country
TTITLE0=Send A Little Love My Way
TTITLE1=I Just Fall In Love Again
TTITLE2=Could I Have This Dance
TTITLE3=A Love Song
TTITLE4=You Needed Me
TTITLE5=You've Gotta Friend
TTITLE6=Killing Me Softly With His Song
TTITLE7=Nobody Loves You Like I Do
TTITLE8=He Thinks I Still Care
TTITLE9=Time Don't Run Out On Me
TTITLE10=Broken Hearted Me
TTITLE11=You've Got Me To Hold On To
TTITLE12=Just Another Woman In Love
TTITLE13=Shadows In The Moonlight
TTITLE14=Who's Leaving Who
TTITLE15=Let Me Be The One
EXTD=YEAR: 1996 ID3G: 2
EXTT0=
EXTT1=
EXTT2=
EXTT3=
EXTT4=
EXTT5=
EXTT6=
EXTT7=
EXTT8=
EXTT9=
EXTT10=
EXTT11=
EXTT12=
EXTT13=
EXTT14=
EXTT15=
PLAYORDER=
